<?xml version="1.0" encoding="UTF-8" standalone="no"?>
<!DOCTYPE svg PUBLIC "-//W3C//DTD SVG 1.1//EN" "http://www.w3.org/Graphics/SVG/1.1/DTD/svg11.dtd">
<svg version="1.1" xmlns="http://www.w3.org/2000/svg" xmlns:xlink="http://www.w3.org/1999/xlink" preserveAspectRatio="xMidYMid meet" viewBox="0 0 40 40" width="40" height="40"><defs><path d="M25.29 29.53C26.87 27.92 27.86 26.91 28.26 26.51C29.23 25.52 29.74 24.16 29.65 22.77C29.63 22.41 29.68 23.18 29.65 22.73C29.59 21.71 28.81 20.87 27.8 20.73C27.72 20.71 27.52 20.68 27.19 20.64C26.46 20.53 26 20.47 25.81 20.44C24.9 20.31 24.06 19.85 23.44 19.16C23.19 18.88 23.54 19.27 23.32 19.02C22.61 18.22 22.33 17.12 22.55 16.07C22.64 15.64 22.57 15.96 22.66 15.51C22.88 14.51 23.47 13.62 24.32 13.05C24.65 12.83 24.22 13.12 24.52 12.91C25.44 12.3 26.56 12.07 27.65 12.3C28.07 12.39 27.79 12.33 28.25 12.43C29.25 12.63 30.17 13.14 30.87 13.87C31.18 14.19 30.9 13.9 31.18 14.19C31.96 15 32.47 16.05 32.64 17.17C32.73 17.78 32.72 17.73 32.8 18.3C32.99 19.57 32.8 20.85 32.27 22.01C31.97 22.66 31.93 22.75 31.64 23.38C31.08 24.6 30.23 25.66 29.17 26.47C28.64 26.88 27.32 27.9 25.2 29.53" id="a2jfrAqgSb"></path><path d="M11.56 29.53C13.14 27.92 14.13 26.91 14.53 26.51C15.5 25.52 16.01 24.16 15.92 22.77C15.9 22.41 15.95 23.18 15.92 22.73C15.86 21.71 15.09 20.87 14.07 20.73C13.99 20.71 13.79 20.68 13.46 20.64C12.73 20.53 12.27 20.47 12.08 20.44C11.17 20.31 10.33 19.85 9.72 19.16C9.47 18.88 9.81 19.27 9.6 19.02C8.88 18.22 8.6 17.12 8.82 16.07C8.91 15.64 8.84 15.96 8.93 15.51C9.15 14.51 9.74 13.62 10.6 13.05C10.92 12.83 10.49 13.12 10.79 12.91C11.71 12.3 12.84 12.07 13.92 12.3C14.35 12.39 14.06 12.33 14.52 12.43C15.52 12.63 16.44 13.14 17.14 13.87C17.45 14.19 17.17 13.9 17.45 14.19C18.23 15 18.74 16.05 18.91 17.17C19 17.78 18.99 17.73 19.07 18.3C19.26 19.57 19.07 20.85 18.54 22.01C18.24 22.66 18.2 22.75 17.91 23.38C17.35 24.6 16.5 25.66 15.44 26.47C14.91 26.88 13.59 27.9 11.47 29.53" id="aZeU6regF"></path></defs><g><g><g><use xlink:href="#a2jfrAqgSb" opacity="1" fill="#ff0000" fill-opacity="1"></use><g><use xlink:href="#a2jfrAqgSb" opacity="1" fill-opacity="0" stroke="#ff0000" stroke-width="1" stroke-opacity="1"></use></g></g><g><use xlink:href="#aZeU6regF" opacity="1" fill="#ff0000" fill-opacity="1"></use><g><use xlink:href="#aZeU6regF" opacity="1" fill-opacity="0" stroke="#ff0000" stroke-width="1" stroke-opacity="1"></use></g></g></g></g></svg>