<?xml version="1.0" encoding="UTF-8" standalone="no"?>
<!DOCTYPE svg PUBLIC "-//W3C//DTD SVG 1.1//EN" "http://www.w3.org/Graphics/SVG/1.1/DTD/svg11.dtd">
<svg version="1.1" xmlns="http://www.w3.org/2000/svg" xmlns:xlink="http://www.w3.org/1999/xlink" preserveAspectRatio="xMidYMid meet" viewBox="0 0 40 40" width="40" height="40"><defs><path d="M16.35 11.34C14.77 12.95 13.78 13.96 13.39 14.36C12.41 15.35 11.9 16.71 11.99 18.1C12.01 18.46 11.96 17.69 11.99 18.14C12.05 19.16 12.83 20 13.84 20.14C13.92 20.16 14.13 20.19 14.45 20.23C15.18 20.34 15.64 20.4 15.83 20.43C16.74 20.56 17.58 21.01 18.2 21.71C18.45 21.99 18.1 21.6 18.32 21.85C19.03 22.65 19.32 23.75 19.09 24.8C19 25.23 19.07 24.91 18.98 25.36C18.77 26.36 18.17 27.25 17.32 27.82C16.99 28.04 17.43 27.75 17.12 27.96C16.2 28.57 15.08 28.8 13.99 28.57C13.57 28.48 13.85 28.54 13.39 28.44C12.39 28.24 11.48 27.73 10.77 27C10.47 26.68 10.74 26.97 10.47 26.68C9.68 25.87 9.17 24.82 9.01 23.7C8.92 23.09 8.92 23.14 8.84 22.57C8.66 21.3 8.84 20.02 9.37 18.86C9.67 18.21 9.72 18.12 10 17.49C10.56 16.27 11.41 15.21 12.47 14.4C13 13.99 14.32 12.97 16.44 11.34" id="b3tyTTU9Kq"></path><path d="M30.08 11.34C28.5 12.95 27.51 13.96 27.11 14.36C26.14 15.35 25.63 16.71 25.72 18.1C25.74 18.46 25.69 17.69 25.72 18.14C25.78 19.16 26.56 20 27.57 20.14C27.65 20.16 27.85 20.19 28.18 20.23C28.91 20.34 29.37 20.4 29.56 20.43C30.47 20.56 31.31 21.01 31.93 21.71C32.18 21.99 31.83 21.6 32.05 21.85C32.76 22.65 33.04 23.75 32.82 24.8C32.73 25.23 32.8 24.91 32.71 25.36C32.49 26.36 31.9 27.25 31.05 27.82C30.72 28.04 31.15 27.75 30.85 27.96C29.93 28.57 28.81 28.8 27.72 28.57C27.3 28.48 27.58 28.54 27.12 28.44C26.12 28.24 25.2 27.73 24.5 27C24.2 26.68 24.47 26.97 24.19 26.68C23.41 25.87 22.9 24.82 22.73 23.7C22.65 23.09 22.65 23.14 22.57 22.57C22.38 21.3 22.57 20.02 23.1 18.86C23.4 18.21 23.44 18.12 23.73 17.49C24.29 16.27 25.14 15.21 26.2 14.4C26.73 13.99 28.05 12.97 30.17 11.34" id="a1kS4SXYs0"></path></defs><g><g><g><use xlink:href="#b3tyTTU9Kq" opacity="1" fill="#ff0000" fill-opacity="1"></use><g><use xlink:href="#b3tyTTU9Kq" opacity="1" fill-opacity="0" stroke="#ff0000" stroke-width="1" stroke-opacity="1"></use></g></g><g><use xlink:href="#a1kS4SXYs0" opacity="1" fill="#ff0000" fill-opacity="1"></use><g><use xlink:href="#a1kS4SXYs0" opacity="1" fill-opacity="0" stroke="#ff0000" stroke-width="1" stroke-opacity="1"></use></g></g></g></g></svg>