<?xml version="1.0" encoding="UTF-8" standalone="no"?>
<!DOCTYPE svg PUBLIC "-//W3C//DTD SVG 1.1//EN" "http://www.w3.org/Graphics/SVG/1.1/DTD/svg11.dtd">
<svg version="1.1" xmlns="http://www.w3.org/2000/svg" xmlns:xlink="http://www.w3.org/1999/xlink" preserveAspectRatio="xMidYMid meet" viewBox="0 0 100 100" width="100" height="100"><defs><path d="M24.39 81.62L25.75 73.77C22.63 73.77 20.9 73.77 20.56 73.77C17.81 73.77 15.58 71.44 15.58 68.56C15.58 64.93 15.58 35.86 15.58 32.23C15.58 29.35 17.81 27.02 20.56 27.02C26.58 27.02 74.82 27.02 80.84 27.02C83.59 27.02 85.82 29.35 85.82 32.23C85.82 35.86 85.82 64.93 85.82 68.56C85.82 71.44 83.59 73.77 80.84 73.77C78.11 73.77 64.42 73.77 39.79 73.77L24.39 81.62Z" id="aolLrXwnS"></path></defs><g><g><g><g><use xlink:href="#aolLrXwnS" opacity="1" fill-opacity="0" stroke="#180c01" stroke-width="5" stroke-opacity="1"></use></g></g></g></g></svg>